<?xml version="1.0" encoding="UTF-8" standalone="no"?><svg xmlns="http://www.w3.org/2000/svg" xmlns:xlink="http://www.w3.org/1999/xlink" contentScriptType="application/ecmascript" contentStyleType="text/css" height="805px" preserveAspectRatio="none" style="width:481px;height:805px;" version="1.1" viewBox="0 0 481 805" width="481px" zoomAndPan="magnify"><defs><filter height="300%" id="fxeb91zrxn4dq" width="300%" x="-1" y="-1"><feGaussianBlur result="blurOut" stdDeviation="2.0"/><feColorMatrix in="blurOut" result="blurOut2" type="matrix" values="0 0 0 0 0 0 0 0 0 0 0 0 0 0 0 0 0 0 .4 0"/><feOffset dx="4.0" dy="4.0" in="blurOut2" result="blurOut3"/><feBlend in="SourceGraphic" in2="blurOut3" mode="normal"/></filter></defs><g><ellipse cx="237.5" cy="20" fill="#000000" filter="url(#fxeb91zrxn4dq)" rx="10" ry="10" style="stroke: none; stroke-width: 1.0;"/><rect fill="#FEFECE" filter="url(#fxeb91zrxn4dq)" height="33.9688" rx="12.5" ry="12.5" style="stroke: #A80036; stroke-width: 1.5;" width="88" x="193.5" y="50"/><text fill="#000000" font-family="sans-serif" font-size="12" lengthAdjust="spacingAndGlyphs" textLength="68" x="203.5" y="71.1387">实例化bean</text><rect fill="#FEFECE" filter="url(#fxeb91zrxn4dq)" height="33.9688" rx="12.5" ry="12.5" style="stroke: #A80036; stroke-width: 1.5;" width="80" x="197.5" y="103.9688"/><text fill="#000000" font-family="sans-serif" font-size="12" lengthAdjust="spacingAndGlyphs" textLength="60" x="207.5" y="125.1074">设置属性值</text><rect fill="#FEFECE" filter="url(#fxeb91zrxn4dq)" height="33.9688" rx="12.5" ry="12.5" style="stroke: #A80036; stroke-width: 1.5;" width="274" x="100.5" y="157.9375"/><text fill="#000000" font-family="sans-serif" font-size="12" lengthAdjust="spacingAndGlyphs" textLength="254" x="110.5" y="179.0762">调用BeanNameAware的setBeanName方法</text><rect fill="#FEFECE" filter="url(#fxeb91zrxn4dq)" height="33.9688" rx="12.5" ry="12.5" style="stroke: #A80036; stroke-width: 1.5;" width="306" x="84.5" y="211.9063"/><text fill="#000000" font-family="sans-serif" font-size="12" lengthAdjust="spacingAndGlyphs" textLength="286" x="94.5" y="233.0449">调用BeanFactoryAware的setBeanFactory的方法</text><rect fill="#FEFECE" filter="url(#fxeb91zrxn4dq)" height="33.9688" rx="12.5" ry="12.5" style="stroke: #A80036; stroke-width: 1.5;" width="372" x="51.5" y="265.875"/><text fill="#000000" font-family="sans-serif" font-size="12" lengthAdjust="spacingAndGlyphs" textLength="352" x="61.5" y="287.0137">调用ApplicationContextAware的setApplicationContext方法</text><rect fill="#FEFECE" filter="url(#fxeb91zrxn4dq)" height="33.9688" rx="12.5" ry="12.5" style="stroke: #A80036; stroke-width: 1.5;" width="453" x="11" y="319.8438"/><text fill="#000000" font-family="sans-serif" font-size="12" lengthAdjust="spacingAndGlyphs" textLength="433" x="21" y="340.9824">调用BeanPostProcessor(统一处理)的postProcessBeforeInitialization方法</text><rect fill="#FEFECE" filter="url(#fxeb91zrxn4dq)" height="47.9375" rx="12.5" ry="12.5" style="stroke: #A80036; stroke-width: 1.5;" width="292" x="91.5" y="373.8125"/><text fill="#000000" font-family="sans-serif" font-size="12" lengthAdjust="spacingAndGlyphs" textLength="162" x="101.5" y="394.9512">调用@PostConstruct的方法</text><text fill="#000000" font-family="sans-serif" font-size="12" lengthAdjust="spacingAndGlyphs" textLength="272" x="101.5" y="408.9199">:调用InitializingBean的afterPropertiesSet方法</text><rect fill="#FEFECE" filter="url(#fxeb91zrxn4dq)" height="33.9688" rx="12.5" ry="12.5" style="stroke: #A80036; stroke-width: 1.5;" width="178" x="148.5" y="441.75"/><text fill="#000000" font-family="sans-serif" font-size="12" lengthAdjust="spacingAndGlyphs" textLength="158" x="158.5" y="462.8887">调用Bean的initMethod方法</text><rect fill="#FEFECE" filter="url(#fxeb91zrxn4dq)" height="33.9688" rx="12.5" ry="12.5" style="stroke: #A80036; stroke-width: 1.5;" width="442" x="16.5" y="495.7188"/><text fill="#000000" font-family="sans-serif" font-size="12" lengthAdjust="spacingAndGlyphs" textLength="422" x="26.5" y="516.8574">调用BeanPostProcessor(统一处理)的postProcessAfterInitialization方法</text><polygon fill="#FEFECE" filter="url(#fxeb91zrxn4dq)" points="225.5,549.6875,249.5,549.6875,261.5,561.6875,249.5,573.6875,225.5,573.6875,213.5,561.6875,225.5,549.6875" style="stroke: #A80036; stroke-width: 1.5;"/><text fill="#000000" font-family="sans-serif" font-size="11" lengthAdjust="spacingAndGlyphs" textLength="24" x="225.5" y="565.4956">type</text><text fill="#000000" font-family="sans-serif" font-size="11" lengthAdjust="spacingAndGlyphs" textLength="54" x="159.5" y="559.0933">prototype</text><text fill="#000000" font-family="sans-serif" font-size="11" lengthAdjust="spacingAndGlyphs" textLength="52" x="261.5" y="559.0933">singleton</text><rect fill="#FEFECE" filter="url(#fxeb91zrxn4dq)" height="33.9688" rx="12.5" ry="12.5" style="stroke: #A80036; stroke-width: 1.5;" width="184" x="32.5" y="583.6875"/><text fill="#000000" font-family="sans-serif" font-size="12" lengthAdjust="spacingAndGlyphs" textLength="164" x="42.5" y="604.8262">将准备就绪的bean交给调用者</text><ellipse cx="124.5" cy="657.2505" fill="#FFFFFF" filter="url(#fxeb91zrxn4dq)" rx="11" ry="11" style="stroke: #000000; stroke-width: 1.0;"/><ellipse cx="124.5" cy="657.2505" fill="#000000" rx="6" ry="6" style="stroke: #7F7F7F; stroke-width: 1.0;"/><rect fill="#FEFECE" filter="url(#fxeb91zrxn4dq)" height="33.9688" rx="12.5" ry="12.5" style="stroke: #A80036; stroke-width: 1.5;" width="200" x="250.5" y="583.6875"/><text fill="#000000" font-family="sans-serif" font-size="12" lengthAdjust="spacingAndGlyphs" textLength="180" x="260.5" y="604.8262">Spring缓存之中准备就绪的bean</text><rect fill="#FEFECE" filter="url(#fxeb91zrxn4dq)" height="33.9688" rx="12.5" ry="12.5" style="stroke: #A80036; stroke-width: 1.5;" width="228" x="236.5" y="659.0552"/><text fill="#000000" font-family="sans-serif" font-size="12" lengthAdjust="spacingAndGlyphs" textLength="208" x="246.5" y="680.1938">调用DisposableBean的destory方法</text><rect fill="#FEFECE" filter="url(#fxeb91zrxn4dq)" height="33.9688" rx="12.5" ry="12.5" style="stroke: #A80036; stroke-width: 1.5;" width="206" x="247.5" y="713.0239"/><text fill="#000000" font-family="sans-serif" font-size="12" lengthAdjust="spacingAndGlyphs" textLength="186" x="257.5" y="734.1626">调用Bean的destoryMethod方法</text><ellipse cx="350.5" cy="777.9927" fill="#FFFFFF" filter="url(#fxeb91zrxn4dq)" rx="11" ry="11" style="stroke: #000000; stroke-width: 1.0;"/><ellipse cx="350.5" cy="777.9927" fill="#000000" rx="6" ry="6" style="stroke: #7F7F7F; stroke-width: 1.0;"/><line style="stroke: #A80036; stroke-width: 1.5;" x1="237.5" x2="237.5" y1="30" y2="50"/><polygon fill="#A80036" points="233.5,40,237.5,50,241.5,40,237.5,44" style="stroke: #A80036; stroke-width: 1.0;"/><line style="stroke: #A80036; stroke-width: 1.5;" x1="237.5" x2="237.5" y1="83.9688" y2="103.9688"/><polygon fill="#A80036" points="233.5,93.9688,237.5,103.9688,241.5,93.9688,237.5,97.9688" style="stroke: #A80036; stroke-width: 1.0;"/><line style="stroke: #A80036; stroke-width: 1.5;" x1="237.5" x2="237.5" y1="137.9375" y2="157.9375"/><polygon fill="#A80036" points="233.5,147.9375,237.5,157.9375,241.5,147.9375,237.5,151.9375" style="stroke: #A80036; stroke-width: 1.0;"/><line style="stroke: #A80036; stroke-width: 1.5;" x1="237.5" x2="237.5" y1="191.9063" y2="211.9063"/><polygon fill="#A80036" points="233.5,201.9063,237.5,211.9063,241.5,201.9063,237.5,205.9063" style="stroke: #A80036; stroke-width: 1.0;"/><line style="stroke: #A80036; stroke-width: 1.5;" x1="237.5" x2="237.5" y1="245.875" y2="265.875"/><polygon fill="#A80036" points="233.5,255.875,237.5,265.875,241.5,255.875,237.5,259.875" style="stroke: #A80036; stroke-width: 1.0;"/><line style="stroke: #A80036; stroke-width: 1.5;" x1="237.5" x2="237.5" y1="299.8438" y2="319.8438"/><polygon fill="#A80036" points="233.5,309.8438,237.5,319.8438,241.5,309.8438,237.5,313.8438" style="stroke: #A80036; stroke-width: 1.0;"/><line style="stroke: #A80036; stroke-width: 1.5;" x1="237.5" x2="237.5" y1="353.8125" y2="373.8125"/><polygon fill="#A80036" points="233.5,363.8125,237.5,373.8125,241.5,363.8125,237.5,367.8125" style="stroke: #A80036; stroke-width: 1.0;"/><line style="stroke: #A80036; stroke-width: 1.5;" x1="237.5" x2="237.5" y1="421.75" y2="441.75"/><polygon fill="#A80036" points="233.5,431.75,237.5,441.75,241.5,431.75,237.5,435.75" style="stroke: #A80036; stroke-width: 1.0;"/><line style="stroke: #A80036; stroke-width: 1.5;" x1="237.5" x2="237.5" y1="475.7188" y2="495.7188"/><polygon fill="#A80036" points="233.5,485.7188,237.5,495.7188,241.5,485.7188,237.5,489.7188" style="stroke: #A80036; stroke-width: 1.0;"/><line style="stroke: #A80036; stroke-width: 1.5;" x1="124.5" x2="124.5" y1="617.6563" y2="646.2505"/><polygon fill="#A80036" points="120.5,636.2505,124.5,646.2505,128.5,636.2505,124.5,640.2505" style="stroke: #A80036; stroke-width: 1.0;"/><line style="stroke: #008000; stroke-width: 1.5;" x1="350.5" x2="350.5" y1="617.6563" y2="659.0552"/><polygon fill="#008000" points="346.5,649.0552,350.5,659.0552,354.5,649.0552,350.5,653.0552" style="stroke: #008000; stroke-width: 1.0;"/><text fill="#000000" font-family="sans-serif" font-size="11" lengthAdjust="spacingAndGlyphs" textLength="51" x="354.5" y="638.9609">Bean销毁</text><line style="stroke: #A80036; stroke-width: 1.5;" x1="350.5" x2="350.5" y1="693.0239" y2="713.0239"/><polygon fill="#A80036" points="346.5,703.0239,350.5,713.0239,354.5,703.0239,350.5,707.0239" style="stroke: #A80036; stroke-width: 1.0;"/><line style="stroke: #A80036; stroke-width: 1.5;" x1="350.5" x2="350.5" y1="746.9927" y2="766.9927"/><polygon fill="#A80036" points="346.5,756.9927,350.5,766.9927,354.5,756.9927,350.5,760.9927" style="stroke: #A80036; stroke-width: 1.0;"/><line style="stroke: #A80036; stroke-width: 1.5;" x1="213.5" x2="124.5" y1="561.6875" y2="561.6875"/><line style="stroke: #A80036; stroke-width: 1.5;" x1="124.5" x2="124.5" y1="561.6875" y2="583.6875"/><polygon fill="#A80036" points="120.5,573.6875,124.5,583.6875,128.5,573.6875,124.5,577.6875" style="stroke: #A80036; stroke-width: 1.0;"/><line style="stroke: #A80036; stroke-width: 1.5;" x1="261.5" x2="350.5" y1="561.6875" y2="561.6875"/><line style="stroke: #A80036; stroke-width: 1.5;" x1="350.5" x2="350.5" y1="561.6875" y2="583.6875"/><polygon fill="#A80036" points="346.5,573.6875,350.5,583.6875,354.5,573.6875,350.5,577.6875" style="stroke: #A80036; stroke-width: 1.0;"/><line style="stroke: #A80036; stroke-width: 1.5;" x1="237.5" x2="237.5" y1="529.6875" y2="549.6875"/><polygon fill="#A80036" points="233.5,539.6875,237.5,549.6875,241.5,539.6875,237.5,543.6875" style="stroke: #A80036; stroke-width: 1.0;"/></g></svg>